<svg width="102" height="61" viewBox="0 0 102 61" fill="none" xmlns="http://www.w3.org/2000/svg">
<path d="M24.8594 60.8C20.9127 60.8 17.3927 60 14.2994 58.4C11.2594 56.8 8.67271 54.6133 6.53938 51.84C4.40604 49.0133 2.77938 45.76 1.65938 42.08C0.592709 38.4 0.0593752 34.5067 0.0593752 30.4C0.0593752 26.24 0.592709 22.32 1.65938 18.64C2.77938 14.96 4.40604 11.7333 6.53938 8.96C8.67271 6.13333 11.2594 3.94666 14.2994 2.4C17.3927 0.799996 20.9127 -4.76837e-06 24.8594 -4.76837e-06C28.806 -4.76837e-06 32.2994 0.799996 35.3394 2.4C38.4327 3.94666 41.046 6.13333 43.1794 8.96C45.3127 11.7333 46.9127 14.96 47.9794 18.64C49.0994 22.32 49.6594 26.24 49.6594 30.4C49.6594 34.5067 49.0994 38.4 47.9794 42.08C46.9127 45.76 45.3127 49.0133 43.1794 51.84C41.046 54.6133 38.4327 56.8 35.3394 58.4C32.2994 60 28.806 60.8 24.8594 60.8ZM24.8594 49.84C28.3794 49.84 31.2594 48.2133 33.4994 44.96C35.7927 41.7067 36.9394 36.8533 36.9394 30.4C36.9394 23.9467 35.7927 19.0933 33.4994 15.84C31.2594 12.5867 28.3794 10.96 24.8594 10.96C21.3394 10.96 18.4327 12.5867 16.1394 15.84C13.8994 19.0933 12.7794 23.9467 12.7794 30.4C12.7794 36.8533 13.8994 41.7067 16.1394 44.96C18.4327 48.2133 21.3394 49.84 24.8594 49.84ZM57.515 60V51.52L67.755 42.8C72.0217 39.2267 75.675 36.1867 78.715 33.68C81.755 31.1733 84.075 28.8267 85.675 26.64C87.275 24.4533 88.075 22.1067 88.075 19.6C88.075 17.68 87.6217 16.08 86.715 14.8C85.8083 13.4667 84.635 12.48 83.195 11.84C81.8083 11.1467 80.3417 10.8 78.795 10.8C76.9283 10.8 75.355 11.1467 74.075 11.84C72.8483 12.5333 71.8617 13.44 71.115 14.56C70.4217 15.6267 69.915 16.7467 69.595 17.92C69.275 19.0933 69.115 20.1067 69.115 20.96H57.275C57.275 18.72 57.7017 16.4 58.555 14C59.4083 11.5467 60.715 9.28 62.475 7.2C64.235 5.06666 66.5017 3.33333 69.275 2C72.0483 0.666663 75.355 -4.76837e-06 79.195 -4.76837e-06C83.0883 -4.76837e-06 86.635 0.77333 89.835 2.32C93.035 3.81333 95.595 5.97333 97.515 8.8C99.4883 11.6267 100.475 14.96 100.475 18.8C100.475 22.4267 99.5683 25.7333 97.755 28.72C95.995 31.6533 93.515 34.5333 90.315 37.36C87.115 40.1333 83.435 43.1467 79.275 46.4L75.915 49.2H101.275V60H57.515Z" fill="#262626"/>
</svg>
