<svg width="107" height="61" viewBox="0 0 107 61" fill="none" xmlns="http://www.w3.org/2000/svg">
<path d="M25.4063 60.8C21.4596 60.8 17.9396 60 14.8463 58.4C11.8063 56.8 9.21958 54.6133 7.08625 51.84C4.95292 49.0133 3.32625 45.76 2.20625 42.08C1.13958 38.4 0.60625 34.5067 0.60625 30.4C0.60625 26.24 1.13958 22.32 2.20625 18.64C3.32625 14.96 4.95292 11.7333 7.08625 8.96C9.21958 6.13333 11.8063 3.94666 14.8463 2.4C17.9396 0.799996 21.4596 -4.76837e-06 25.4063 -4.76837e-06C29.3529 -4.76837e-06 32.8463 0.799996 35.8863 2.4C38.9796 3.94666 41.5929 6.13333 43.7263 8.96C45.8596 11.7333 47.4596 14.96 48.5263 18.64C49.6463 22.32 50.2063 26.24 50.2063 30.4C50.2063 34.5067 49.6463 38.4 48.5263 42.08C47.4596 45.76 45.8596 49.0133 43.7263 51.84C41.5929 54.6133 38.9796 56.8 35.8863 58.4C32.8463 60 29.3529 60.8 25.4063 60.8ZM25.4063 49.84C28.9263 49.84 31.8063 48.2133 34.0463 44.96C36.3396 41.7067 37.4863 36.8533 37.4863 30.4C37.4863 23.9467 36.3396 19.0933 34.0463 15.84C31.8063 12.5867 28.9263 10.96 25.4063 10.96C21.8863 10.96 18.9796 12.5867 16.6863 15.84C14.4463 19.0933 13.3263 23.9467 13.3263 30.4C13.3263 36.8533 14.4463 41.7067 16.6863 44.96C18.9796 48.2133 21.8863 49.84 25.4063 49.84ZM85.4219 60V47.92L56.7819 47.84V37.12L82.5419 0.799999H97.8219V37.52H106.942V47.92H97.8219V60H85.4219ZM68.9419 37.52H85.4219V14.08L68.9419 37.52Z" fill="#262626"/>
</svg>
