<svg width="104" height="61" viewBox="0 0 104 61" fill="none" xmlns="http://www.w3.org/2000/svg">
<path d="M25.6094 60.8C21.6627 60.8 18.1427 60 15.0494 58.4C12.0094 56.8 9.42271 54.6133 7.28938 51.84C5.15604 49.0133 3.52938 45.76 2.40938 42.08C1.34271 38.4 0.809375 34.5067 0.809375 30.4C0.809375 26.24 1.34271 22.32 2.40938 18.64C3.52938 14.96 5.15604 11.7333 7.28938 8.96C9.42271 6.13333 12.0094 3.94666 15.0494 2.4C18.1427 0.799996 21.6627 -4.76837e-06 25.6094 -4.76837e-06C29.556 -4.76837e-06 33.0494 0.799996 36.0894 2.4C39.1827 3.94666 41.796 6.13333 43.9294 8.96C46.0627 11.7333 47.6627 14.96 48.7294 18.64C49.8494 22.32 50.4094 26.24 50.4094 30.4C50.4094 34.5067 49.8494 38.4 48.7294 42.08C47.6627 45.76 46.0627 49.0133 43.9294 51.84C41.796 54.6133 39.1827 56.8 36.0894 58.4C33.0494 60 29.556 60.8 25.6094 60.8ZM25.6094 49.84C29.1294 49.84 32.0094 48.2133 34.2494 44.96C36.5427 41.7067 37.6894 36.8533 37.6894 30.4C37.6894 23.9467 36.5427 19.0933 34.2494 15.84C32.0094 12.5867 29.1294 10.96 25.6094 10.96C22.0894 10.96 19.1827 12.5867 16.8894 15.84C14.6494 19.0933 13.5294 23.9467 13.5294 30.4C13.5294 36.8533 14.6494 41.7067 16.8894 44.96C19.1827 48.2133 22.0894 49.84 25.6094 49.84ZM80.905 60.8C77.065 60.8 73.8117 60.32 71.145 59.36C68.5317 58.4 66.3983 57.1467 64.745 55.6C63.0917 54.0533 61.785 52.4267 60.825 50.72C59.9183 48.96 59.2783 47.3067 58.905 45.76C58.585 44.16 58.425 42.8533 58.425 41.84H70.105C70.105 42.96 70.425 44.2133 71.065 45.6C71.705 46.9333 72.7717 48.1067 74.265 49.12C75.8117 50.1333 77.9717 50.64 80.745 50.64C83.625 50.64 85.9983 49.8933 87.865 48.4C89.785 46.9067 90.745 44.9067 90.745 42.4C90.745 40.16 89.9183 38.32 88.265 36.88C86.665 35.3867 84.3717 34.64 81.385 34.64H73.385V25.12H81.465C84.025 25.12 86.0783 24.4267 87.625 23.04C89.1717 21.6 89.945 19.84 89.945 17.76C89.945 15.5733 89.065 13.76 87.305 12.32C85.545 10.8267 83.3583 10.08 80.745 10.08C78.2917 10.08 76.345 10.6133 74.905 11.68C73.5183 12.7467 72.505 14 71.865 15.44C71.2783 16.88 70.985 18.1333 70.985 19.2H59.545C59.545 18.24 59.705 16.96 60.025 15.36C60.3983 13.76 61.0383 12.08 61.945 10.32C62.8517 8.56 64.105 6.90666 65.705 5.36C67.305 3.76 69.3317 2.48 71.785 1.52C74.2917 0.506663 77.3317 -4.76837e-06 80.905 -4.76837e-06C84.4783 -4.76837e-06 87.865 0.666663 91.065 2C94.3183 3.28 96.9583 5.17333 98.985 7.68C101.012 10.1333 102.025 13.12 102.025 16.64C102.025 19.04 101.545 21.12 100.585 22.88C99.625 24.5867 98.4517 26 97.065 27.12C95.6783 28.24 94.2917 29.04 92.905 29.52V30C95.5717 30.96 97.9183 32.5067 99.945 34.64C102.025 36.72 103.065 39.5467 103.065 43.12C103.065 46.8533 102.025 50.0533 99.945 52.72C97.9183 55.3333 95.225 57.3333 91.865 58.72C88.505 60.1067 84.8517 60.8 80.905 60.8Z" fill="#262626"/>
</svg>
