<svg width="105" height="61" viewBox="0 0 105 61" fill="none" xmlns="http://www.w3.org/2000/svg">
<path d="M24.9688 60.8C21.0221 60.8 17.5021 60 14.4088 58.4C11.3688 56.8 8.78208 54.6133 6.64875 51.84C4.51542 49.0133 2.88875 45.76 1.76875 42.08C0.702084 38.4 0.16875 34.5067 0.16875 30.4C0.16875 26.24 0.702084 22.32 1.76875 18.64C2.88875 14.96 4.51542 11.7333 6.64875 8.96C8.78208 6.13333 11.3688 3.94666 14.4088 2.4C17.5021 0.799996 21.0221 -4.76837e-06 24.9688 -4.76837e-06C28.9154 -4.76837e-06 32.4088 0.799996 35.4488 2.4C38.5421 3.94666 41.1554 6.13333 43.2888 8.96C45.4221 11.7333 47.0221 14.96 48.0888 18.64C49.2088 22.32 49.7688 26.24 49.7688 30.4C49.7688 34.5067 49.2088 38.4 48.0888 42.08C47.0221 45.76 45.4221 49.0133 43.2888 51.84C41.1554 54.6133 38.5421 56.8 35.4488 58.4C32.4088 60 28.9154 60.8 24.9688 60.8ZM24.9688 49.84C28.4888 49.84 31.3688 48.2133 33.6088 44.96C35.9021 41.7067 37.0488 36.8533 37.0488 30.4C37.0488 23.9467 35.9021 19.0933 33.6088 15.84C31.3688 12.5867 28.4888 10.96 24.9688 10.96C21.4488 10.96 18.5421 12.5867 16.2488 15.84C14.0088 19.0933 12.8888 23.9467 12.8888 30.4C12.8888 36.8533 14.0088 41.7067 16.2488 44.96C18.5421 48.2133 21.4488 49.84 24.9688 49.84ZM81.9444 60.8C77.8377 60.8 74.2644 60.08 71.2244 58.64C68.1844 57.1467 65.651 55.1467 63.6244 52.64C61.651 50.08 60.1844 47.2 59.2244 44C58.2644 40.7467 57.7844 37.36 57.7844 33.84C57.7844 29.9467 58.371 26.0267 59.5444 22.08C60.771 18.08 62.6644 14.4267 65.2244 11.12C67.8377 7.76 71.171 5.06667 75.2244 3.04C79.2777 1.01333 84.1844 -4.76837e-06 89.9444 -4.76837e-06C92.291 -4.76837e-06 94.3177 0.159996 96.0244 0.479999C97.731 0.746665 98.5844 0.879998 98.5844 0.879998V11.84C98.5844 11.84 98.131 11.7867 97.2244 11.68C96.371 11.52 95.2777 11.36 93.9444 11.2C92.611 11.04 91.2777 10.96 89.9444 10.96C85.8377 10.96 82.3977 11.7867 79.6244 13.44C76.851 15.0933 74.7177 17.2 73.2244 19.76C71.7844 22.32 70.931 25.0133 70.6644 27.84C71.1977 26.9333 72.0244 25.9467 73.1444 24.88C74.2644 23.76 75.7577 22.8 77.6244 22C79.5444 21.2 81.9444 20.8 84.8244 20.8C89.091 20.8 92.6644 21.7333 95.5444 23.6C98.4244 25.4133 100.584 27.7867 102.024 30.72C103.464 33.6533 104.184 36.72 104.184 39.92C104.184 42.48 103.704 45.0133 102.744 47.52C101.838 49.9733 100.451 52.2133 98.5844 54.24C96.771 56.2133 94.4777 57.8133 91.7044 59.04C88.931 60.2133 85.6777 60.8 81.9444 60.8ZM81.9444 50.64C84.931 50.64 87.3844 49.68 89.3044 47.76C91.2244 45.84 92.1844 43.3867 92.1844 40.4C92.1844 37.36 91.2244 34.9067 89.3044 33.04C87.3844 31.12 84.931 30.16 81.9444 30.16C79.011 30.16 76.5577 31.12 74.5844 33.04C72.6644 34.9067 71.7044 37.36 71.7044 40.4C71.7044 43.3867 72.6644 45.84 74.5844 47.76C76.5577 49.68 79.011 50.64 81.9444 50.64Z" fill="#262626"/>
</svg>
