<svg width="104" height="61" viewBox="0 0 104 61" fill="none" xmlns="http://www.w3.org/2000/svg">
<path d="M25.4531 60.8C21.5065 60.8 17.9865 60 14.8931 58.4C11.8531 56.8 9.26646 54.6133 7.13313 51.84C4.99979 49.0133 3.37313 45.76 2.25313 42.08C1.18646 38.4 0.653125 34.5067 0.653125 30.4C0.653125 26.24 1.18646 22.32 2.25313 18.64C3.37313 14.96 4.99979 11.7333 7.13313 8.96C9.26646 6.13333 11.8531 3.94666 14.8931 2.4C17.9865 0.799996 21.5065 -4.76837e-06 25.4531 -4.76837e-06C29.3998 -4.76837e-06 32.8931 0.799996 35.9331 2.4C39.0265 3.94666 41.6398 6.13333 43.7731 8.96C45.9065 11.7333 47.5065 14.96 48.5731 18.64C49.6931 22.32 50.2531 26.24 50.2531 30.4C50.2531 34.5067 49.6931 38.4 48.5731 42.08C47.5065 45.76 45.9065 49.0133 43.7731 51.84C41.6398 54.6133 39.0265 56.8 35.9331 58.4C32.8931 60 29.3998 60.8 25.4531 60.8ZM25.4531 49.84C28.9731 49.84 31.8531 48.2133 34.0931 44.96C36.3865 41.7067 37.5331 36.8533 37.5331 30.4C37.5331 23.9467 36.3865 19.0933 34.0931 15.84C31.8531 12.5867 28.9731 10.96 25.4531 10.96C21.9331 10.96 19.0265 12.5867 16.7331 15.84C14.4931 19.0933 13.3731 23.9467 13.3731 30.4C13.3731 36.8533 14.4931 41.7067 16.7331 44.96C19.0265 48.2133 21.9331 49.84 25.4531 49.84ZM80.7488 60.8C76.7488 60.8 73.3354 60.16 70.5088 58.88C67.6821 57.6 65.3621 55.9733 63.5488 54C61.7888 52.0267 60.4821 49.9733 59.6288 47.84C58.8288 45.6533 58.4288 43.6533 58.4288 41.84H69.8688C69.8688 41.84 69.9488 42.2933 70.1088 43.2C70.3221 44.1067 70.7754 45.1467 71.4688 46.32C72.1621 47.4933 73.2288 48.5333 74.6688 49.44C76.1088 50.3467 78.0554 50.8 80.5088 50.8C82.9621 50.8 84.9888 50.2933 86.5888 49.28C88.1888 48.2133 89.3888 46.88 90.1888 45.28C90.9888 43.68 91.3888 42 91.3888 40.24C91.3888 38.4267 90.9888 36.72 90.1888 35.12C89.3888 33.4667 88.1888 32.1333 86.5888 31.12C85.0421 30.0533 83.0954 29.52 80.7488 29.52C78.9354 29.52 77.4421 29.8133 76.2688 30.4C75.0954 30.9333 74.1621 31.5733 73.4688 32.32C72.7754 33.0133 72.2688 33.6533 71.9488 34.24C71.6821 34.7733 71.5488 35.04 71.5488 35.04H59.3888L64.5888 0.799999H99.4688V11.52H72.9888L70.9088 25.04H71.2288C71.4954 24.7733 72.0288 24.24 72.8288 23.44C73.6821 22.64 74.9621 21.8933 76.6688 21.2C78.3754 20.4533 80.6421 20.08 83.4688 20.08C87.7354 20.08 91.3621 21.04 94.3488 22.96C97.3354 24.88 99.5754 27.36 101.069 30.4C102.615 33.3867 103.389 36.56 103.389 39.92C103.389 42.5333 102.909 45.0667 101.949 47.52C101.042 49.9733 99.6554 52.2133 97.7888 54.24C95.9221 56.2133 93.5754 57.8133 90.7488 59.04C87.9221 60.2133 84.5888 60.8 80.7488 60.8Z" fill="#262626"/>
</svg>
