<svg width="81" height="61" viewBox="0 0 81 61" fill="none" xmlns="http://www.w3.org/2000/svg">
<path d="M25.5313 60.8C21.5846 60.8 18.0646 60 14.9713 58.4C11.9313 56.8 9.34458 54.6133 7.21125 51.84C5.07792 49.0133 3.45125 45.76 2.33125 42.08C1.26458 38.4 0.73125 34.5067 0.73125 30.4C0.73125 26.24 1.26458 22.32 2.33125 18.64C3.45125 14.96 5.07792 11.7333 7.21125 8.96C9.34458 6.13333 11.9313 3.94666 14.9713 2.4C18.0646 0.799996 21.5846 -4.76837e-06 25.5313 -4.76837e-06C29.4779 -4.76837e-06 32.9713 0.799996 36.0113 2.4C39.1046 3.94666 41.7179 6.13333 43.8513 8.96C45.9846 11.7333 47.5846 14.96 48.6513 18.64C49.7713 22.32 50.3313 26.24 50.3313 30.4C50.3313 34.5067 49.7713 38.4 48.6513 42.08C47.5846 45.76 45.9846 49.0133 43.8513 51.84C41.7179 54.6133 39.1046 56.8 36.0113 58.4C32.9713 60 29.4779 60.8 25.5313 60.8ZM25.5313 49.84C29.0513 49.84 31.9313 48.2133 34.1713 44.96C36.4646 41.7067 37.6113 36.8533 37.6113 30.4C37.6113 23.9467 36.4646 19.0933 34.1713 15.84C31.9313 12.5867 29.0513 10.96 25.5313 10.96C22.0113 10.96 19.1046 12.5867 16.8113 15.84C14.5713 19.0933 13.4513 23.9467 13.4513 30.4C13.4513 36.8533 14.5713 41.7067 16.8113 44.96C19.1046 48.2133 22.0113 49.84 25.5313 49.84ZM80.6669 0.799999V60H68.3469V17.6L56.9069 17.68V10.24L58.7469 9.68C62.1069 8.72 64.8269 7.62667 66.9069 6.4C68.9869 5.17333 70.9869 3.54667 72.9069 1.52L73.4669 0.799999H80.6669Z" fill="#262626"/>
</svg>
