<svg width="24" height="20" viewBox="0 0 24 20" fill="none" xmlns="http://www.w3.org/2000/svg">
<path d="M7.55016 19.875C16.6045 19.875 21.5583 12.3717 21.5583 5.86686C21.5583 5.65592 21.5536 5.4403 21.5442 5.22936C22.5079 4.53246 23.3395 3.66925 24 2.6803C23.1025 3.0796 22.1496 3.34038 21.1739 3.45374C22.2013 2.83791 22.9705 1.87047 23.3391 0.730767C22.3726 1.30356 21.3156 1.70761 20.2134 1.92561C19.4708 1.13656 18.489 0.614116 17.4197 0.439051C16.3504 0.263986 15.2532 0.44605 14.2977 0.957096C13.3423 1.46814 12.5818 2.27971 12.1338 3.26631C11.6859 4.25292 11.5754 5.35962 11.8195 6.4153C9.86249 6.31709 7.94794 5.8087 6.19998 4.9231C4.45203 4.03749 2.90969 2.79444 1.67297 1.27452C1.0444 2.35824 0.852057 3.64065 1.13503 4.86109C1.418 6.08154 2.15506 7.14845 3.19641 7.84499C2.41463 7.82017 1.64998 7.60968 0.965625 7.23092V7.29186C0.964925 8.42915 1.3581 9.53159 2.07831 10.4118C2.79852 11.292 3.80132 11.8956 4.91625 12.12C4.19206 12.3181 3.43198 12.347 2.69484 12.2044C3.00945 13.1824 3.62157 14.0379 4.44577 14.6513C5.26997 15.2648 6.26512 15.6056 7.29234 15.6262C5.54842 16.9961 3.39417 17.7391 1.17656 17.7356C0.783287 17.735 0.390399 17.7109 0 17.6634C2.25286 19.1087 4.87353 19.8764 7.55016 19.875Z" fill="#333333"/>
</svg>
